<?xml version="1.0" ?><!DOCTYPE svg  PUBLIC '-//W3C//DTD SVG 1.1//EN'  'http://www.w3.org/Graphics/SVG/1.1/DTD/svg11.dtd'><svg enable-background="new 0 0 64 64" id="Layer_1" version="1.1" viewBox="0 0 64 64" xml:space="preserve" xmlns="http://www.w3.org/2000/svg" xmlns:xlink="http://www.w3.org/1999/xlink"><g><path d="M16.2,43.2l-0.6,1.5c-0.2,0.4-0.1,0.8,0.2,1.1c0.2,0.2,0.4,0.3,0.7,0.3c0.1,0,0.3,0,0.4-0.1l1.5-0.6l8,10.5   c0.2,0.2,0.4,0.4,0.7,0.4c0,0,0.1,0,0.1,0c0.3,0,0.5-0.1,0.7-0.3c3-2.8,0.3-11.2-0.8-14.3c0.1,0,0.2-0.1,0.3-0.2l7.1-7.1l12.2,15.8   c0.2,0.2,0.5,0.4,0.7,0.4c0,0,0,0,0,0c0.3,0,0.5-0.1,0.7-0.3c4.1-4.4-1.9-16.9-3.6-20.2l2-2c0.2-0.2,0.3-0.4,0.3-0.7   s-0.1-0.5-0.3-0.7l-2.2-2.2l6.4-6.4c2.5-2.5,2.8-6.1,0.8-8.1c-0.9-0.9-2-1.3-3.3-1.3c-1.7,0-3.5,0.8-4.8,2.1l-6.4,6.4L34.7,15   c-0.4-0.4-1-0.4-1.4,0l-2,2c-2.3-1.2-10.3-5.1-15.7-5.1c-1.9,0-3.4,0.5-4.4,1.4c-0.2,0.2-0.3,0.5-0.3,0.8c0,0.3,0.2,0.6,0.4,0.7   l15.9,12.3L20,34.3c-0.1,0.1-0.1,0.2-0.2,0.3c-1.9-0.7-6.5-2.1-10-2.1c-1.9,0-3.4,0.5-4.2,1.4c-0.2,0.2-0.3,0.5-0.3,0.8   s0.2,0.5,0.4,0.7L16.2,43.2z M15.6,13.9c5.8,0,15.3,5.1,15.4,5.2c0.4,0.2,0.9,0.1,1.2-0.2l1.8-1.8l1.5,1.5l-7,7L13.6,14.2   C14.2,14,14.8,13.9,15.6,13.9z M27.1,53.5l-6.8-8.8l5-2.1C26.6,46.3,27.7,51.1,27.1,53.5z M44.4,27.5l-1.8,1.8   c-0.3,0.3-0.4,0.8-0.2,1.2c2.7,5.1,6.1,13.6,4.9,17.4L35.9,33.1l7-7L44.4,27.5z M44.7,12.4c1-1,2.2-1.5,3.4-1.5   c0.5,0,1.3,0.1,1.9,0.7c1.2,1.2,0.9,3.6-0.8,5.3l-6.9,6.9c-0.1,0-0.2,0.1-0.2,0.2l-8.3,8.3c-0.1,0.1-0.1,0.2-0.2,0.3L26.1,40   l-7.8,3.3l3.3-7.8L44.7,12.4z M9.8,34.4c3.1,0,7.3,1.3,9.2,2L17,41.3l-8.8-6.8C8.6,34.5,9.2,34.4,9.8,34.4z"/></g></svg>